:SAMPLES-PER-SECOND 30
:FULLY-SPECIFIED
:DEGREES
249
root  38.8037 37.3869 22.638 -125.865 -82.1826 127.447
RightUpLeg  -38.1917 -23.5133 -2.23473
RightLeg  60.9161 -9.24551 -17.9028
RightFoot  -14.2732 0.0462091 5.67002
RightToes  0.000482159 0.542163 -0.142577
Spine  30.7127 -0.725472 -13.2096
Spine1  -9.2376 -4.73228 3.92365
HEad  -41.6839 -13.9623 7.45898
LeftShoulder1  9.84643 -15.2287 -45.832
LeftArm  -7.95164 6.78371 -32.5994
LeftForeArm  55.987 -53.8323 -10.844
LeftHand  -0.25398 0.0180481 5.50724
RightShoulder  6.54741 10.7824 39.7072
RightArm  2.2829 -21.2575 31.5497
RightForeArm  4.39462 57.9485 17.9065
RightHand  -4.29736 11.1315 -29.9741
LeftUpLeg  -7.76571 15.6119 -5.252
LeftLeg  34.6277 5.55593 4.4745
LeftFoot  -26.5542 -0.410578 -4.27389
LeftToes  1.06246e-005 4.65855e-005 -8.18502e-006
250
root  36.897 37.2444 23.0421 -149.675 -78.5611 150.768
RightUpLeg  -39.0907 -22.8103 -1.00613
RightLeg  62.0423 -10.8692 -21.6136
RightFoot  -16.9497 0.132188 5.06514
RightToes  0.000482159 0.542163 -0.142577
Spine  28.7564 -2.24251 -10.2446
Spine1  -11.5428 -5.16502 3.22219
HEad  -38.4839 -12.0088 4.25884
LeftShoulder1  9.40869 -14.6553 -45.1617
LeftArm  -7.45485 8.78693 -36.5066
LeftForeArm  58.5589 -55.091 -11.2591
LeftHand  -0.25398 0.0180481 5.50724
RightShoulder  6.31175 10.6645 38.4816
RightArm  2.56697 -24.9171 31.2266
RightForeArm  3.28417 57.3978 17.5979
RightHand  -4.42977 11.297 -30.5528
LeftUpLeg  -2.28687 20.0681 -4.47747
LeftLeg  32.4835 6.67076 4.90702
LeftFoot  -28.7274 -0.649354 -5.31045
LeftToes  1.06246e-005 4.65855e-005 -8.18502e-006
251
root  34.6438 37.0979 23.4435 -165.738 -72.2357 166.365
RightUpLeg  -37.9338 -20.2342 -0.276979
RightLeg  62.5095 -11.4467 -23.0216
RightFoot  -18.059 0.12797 4.25024
RightToes  0.000482159 0.542163 -0.142577
Spine  25.4453 -3.31778 -4.74922
Spine1  -12.9353 -4.62091 1.87972
HEad  -35.5372 -8.8096 -1.16603
LeftShoulder1  9.43128 -14.3766 -45.9992
LeftArm  -9.43415 12.7178 -35.9597
LeftForeArm  59.8827 -53.4441 -10.4284
LeftHand  -0.25398 0.0180481 5.50724
RightShoulder  5.98176 10.597 36.4295
RightArm  2.3894 -26.5967 30.7219
RightForeArm  2.88062 57.4257 17.6553
RightHand  -4.53279 11.6407 -30.627
LeftUpLeg  3.16908 25.4165 -2.95843
LeftLeg  31.664 8.30846 5.85086
LeftFoot  -29.0994 -1.27421 -9.38275
LeftToes  1.06246e-005 4.65855e-005 -8.18502e-006
252
root  32.3405 36.8891 23.7246 -172.754 -64.6739 172.346
RightUpLeg  -33.7809 -16.1502 -1.64004
RightLeg  59.7579 -10.3426 -18.981
RightFoot  -18.3381 0.182814 5.01084
RightToes  0.000482159 0.542163 -0.142577
Spine  22.9987 -3.50984 0.691787
Spine1  -12.4632 -3.64009 1.13579
HEad  -35.0568 -5.00988 -6.6581
LeftShoulder1  9.91156 -14.5317 -47.9716
LeftArm  -11.5008 16.9685 -30.4507
LeftForeArm  56.7654 -48.4151 -8.60904
LeftHand  -0.25398 0.0180481 5.50724
RightShoulder  5.86702 10.6283 35.543
RightArm  1.61482 -23.3319 30.0023
RightForeArm  2.50713 56.9336 17.3357
RightHand  -4.67299 12.0288 -30.8636
LeftUpLeg  5.80036 29.9446 -1.95925
LeftLeg  36.9136 10.1121 8.52071
LeftFoot  -23.3426 -1.28671 -13.674
LeftToes  1.06246e-005 4.65855e-005 -8.18502e-006
253
root  30.3275 36.4841 23.9105 -175.745 -57.5487 173.767
RightUpLeg  -28.9068 -11.5884 -4.33742
RightLeg  55.9069 -8.13259 -13.0736
RightFoot  -19.4986 0.30973 6.19064
RightToes  0.000482159 0.542163 -0.142577
Spine  23.5455 -3.5141 4.44664
Spine1  -11.2915 -2.8886 1.09431
HEad  -37.2308 -2.5359 -10.0652
LeftShoulder1  10.3829 -14.8271 -49.4564
LeftArm  -12.8767 21.262 -23.1172
LeftForeArm  50.3743 -41.559 -6.7233
LeftHand  -0.25398 0.0180481 5.50724
RightShoulder  6.12468 10.7464 36.9672
RightArm  1.37686 -14.4954 29.9048
RightForeArm  2.17477 55.2951 16.2503
RightHand  -4.44789 11.3897 -30.5105
LeftUpLeg  2.50371 32.6056 -2.17495
LeftLeg  50.149 9.32217 12.0766
LeftFoot  -9.9303 0.0982215 -11.9956
LeftToes  1.06246e-005 4.65855e-005 -8.18502e-006
254
root  28.7712 35.6825 24.1958 -178.547 -51.3402 175.417
RightUpLeg  -27.0924 -7.71279 -5.89008
RightLeg  56.1976 -6.06112 -10.0673
RightFoot  -22.1907 0.436739 6.20907
RightToes  0.000482159 0.542163 -0.142577
Spine  27.7529 -3.91697 7.87837
Spine1  -11.4763 -2.19674 1.44345
HEad  -41.357 -1.74425 -11.3361
LeftShoulder1  10.6677 -15.1212 -50.0082
LeftArm  -14.406 26.0761 -16.9492
LeftForeArm  45.04 -35.6264 -5.39948
LeftHand  -0.25398 0.0180481 5.50724
RightShoulder  6.47341 10.8574 38.9904
RightArm  3.1732 -2.86336 31.843
RightForeArm  3.78074 53.5554 15.028
RightHand  -3.59521 9.36636 -28.1105
LeftUpLeg  -6.76837 33.1299 -2.41813
LeftLeg  67.1623 4.62936 12.4736
LeftFoot  2.47899 0.586901 -4.62462
LeftToes  1.06246e-005 4.65855e-005 -8.18502e-006
255
root  27.5013 34.7081 24.6687 179.102 -45.8403 177.083
RightUpLeg  -28.3608 -5.267 -6.90796
RightLeg  60.7747 -4.23647 -8.67484
RightFoot  -24.9928 0.537343 5.88861
RightToes  0.000482159 0.542163 -0.142577
Spine  34.4828 -4.41433 10.8109
Spine1  -12.9504 -1.35072 1.3412
HEad  -47.8982 -0.8799 -10.8121
LeftShoulder1  10.6532 -15.4203 -49.1517
LeftArm  -16.053 30.9586 -13.0911
LeftForeArm  42.2615 -32.6745 -4.83394
LeftHand  -0.25398 0.0180481 5.50724
RightShoulder  6.71496 10.9669 40.2479
RightArm  6.84766 8.4739 35.7968
RightForeArm  8.66064 53.4907 14.5829
RightHand  -2.47778 6.76152 -23.7046
LeftUpLeg  -18.7648 31.5135 -1.99154
LeftLeg  83.0279 0.67982 11.3921
LeftFoot  4.35343 -0.0403257 0.290261
LeftToes  1.06246e-005 4.65855e-005 -8.18502e-006
